<svg width="499" height="93" viewBox="0 0 499 93" fill="none" xmlns="http://www.w3.org/2000/svg">
<path d="M497.508 41.5989H492.475C492.475 39.6562 491.592 38.0667 489.826 36.8304C488.059 35.5941 485.73 34.9759 482.838 34.9759C479.902 34.9759 477.573 35.5831 475.851 36.7973C474.129 38.0115 473.268 39.5237 473.268 41.334C473.268 43.3209 473.897 44.8663 475.156 45.9701C476.436 47.0519 478.026 47.6921 479.924 47.8908C481.823 48.0895 483.887 48.3654 486.117 48.7187C488.369 49.0498 490.444 49.4693 492.342 49.977C494.241 50.4627 495.819 51.5445 497.078 53.2223C498.358 54.8781 498.998 57.1299 498.998 59.9778C498.998 63.7308 497.552 66.667 494.66 68.7864C491.768 70.8836 487.828 71.9323 482.838 71.9323C478.048 71.9323 474.184 70.7291 471.248 68.3228C468.312 65.8943 466.844 62.7815 466.844 58.9843H471.844C471.844 61.4348 472.827 63.4438 474.791 65.0113C476.778 66.5566 479.461 67.3293 482.838 67.3293C486.326 67.3293 489.031 66.678 490.951 65.3755C492.872 64.0509 493.832 62.1854 493.832 59.7791C493.832 58.0571 493.358 56.6994 492.409 55.7059C491.459 54.7125 490.223 54.0391 488.7 53.6859C487.198 53.3327 485.532 53.0678 483.699 52.8912C481.867 52.6925 480.046 52.4496 478.235 52.1626C476.425 51.8756 474.758 51.401 473.235 50.7387C471.734 50.0764 470.508 48.9836 469.559 47.4603C468.61 45.9149 468.135 43.917 468.135 41.4665C468.135 38.0225 469.559 35.3071 472.407 33.3202C475.255 31.3333 478.732 30.3398 482.838 30.3398C487.232 30.3398 490.775 31.3885 493.468 33.4858C496.162 35.5831 497.508 38.2874 497.508 41.5989Z" fill="#4A464E"/>
<path d="M459.961 41.5989H454.928C454.928 39.6562 454.045 38.0667 452.279 36.8304C450.513 35.5941 448.183 34.9759 445.291 34.9759C442.355 34.9759 440.026 35.5831 438.304 36.7973C436.582 38.0115 435.721 39.5237 435.721 41.334C435.721 43.3209 436.35 44.8663 437.609 45.9701C438.889 47.0519 440.479 47.6921 442.377 47.8908C444.276 48.0895 446.34 48.3654 448.57 48.7187C450.822 49.0498 452.897 49.4693 454.795 49.977C456.694 50.4627 458.273 51.5445 459.531 53.2223C460.811 54.8781 461.452 57.1299 461.452 59.9778C461.452 63.7308 460.006 66.667 457.113 68.7864C454.221 70.8836 450.281 71.9323 445.291 71.9323C440.501 71.9323 436.637 70.7291 433.701 68.3228C430.765 65.8943 429.297 62.7815 429.297 58.9843H434.297C434.297 61.4348 435.28 63.4438 437.244 65.0113C439.231 66.5566 441.914 67.3293 445.291 67.3293C448.78 67.3293 451.484 66.678 453.405 65.3755C455.325 64.0509 456.286 62.1854 456.286 59.7791C456.286 58.0571 455.811 56.6994 454.862 55.7059C453.912 54.7125 452.676 54.0391 451.153 53.6859C449.652 53.3327 447.985 53.0678 446.152 52.8912C444.32 52.6925 442.499 52.4496 440.688 52.1626C438.878 51.8756 437.211 51.401 435.688 50.7387C434.187 50.0764 432.962 48.9836 432.012 47.4603C431.063 45.9149 430.588 43.917 430.588 41.4665C430.588 38.0225 432.012 35.3071 434.86 33.3202C437.708 31.3333 441.185 30.3398 445.291 30.3398C449.685 30.3398 453.228 31.3885 455.921 33.4858C458.615 35.5831 459.961 38.2874 459.961 41.5989Z" fill="#4A464E"/>
<path d="M417.502 70.7733V62.8257H417.37C415.604 65.4528 413.33 67.6273 410.548 69.3493C407.767 71.0713 404.554 71.9323 400.912 71.9323C395.128 71.9323 390.227 69.9123 386.209 65.8722C382.213 61.8101 380.215 56.887 380.215 51.103C380.215 45.363 382.213 40.473 386.209 36.433C390.205 32.3709 395.106 30.3398 400.912 30.3398C404.621 30.3398 407.844 31.1898 410.581 32.8897C413.341 34.5896 415.604 36.7752 417.37 39.4465H417.502V31.4989H422.536V70.7733H417.502ZM417.502 51.103C417.502 46.6214 415.924 42.8132 412.767 39.6783C409.61 36.5434 405.813 34.9759 401.375 34.9759C396.894 34.9759 393.108 36.5434 390.017 39.6783C386.926 42.8132 385.381 46.6214 385.381 51.103C385.381 55.6287 386.926 59.47 390.017 62.627C393.108 65.7619 396.894 67.3293 401.375 67.3293C405.813 67.3293 409.61 65.7619 412.767 62.627C415.924 59.47 417.502 55.6287 417.502 51.103Z" fill="#4A464E"/>
<path d="M338.161 31.4989V39.4465H338.326C340.092 36.8193 342.355 34.6448 345.115 32.9228C347.896 31.2008 351.12 30.3398 354.784 30.3398C360.568 30.3398 365.458 32.3709 369.454 36.433C373.472 40.473 375.481 45.3851 375.481 51.1692C375.481 56.9091 373.472 61.8101 369.454 65.8722C365.458 69.9123 360.568 71.9323 354.784 71.9323C351.075 71.9323 347.841 71.0823 345.082 69.3824C342.322 67.6825 340.07 65.4969 338.326 62.8257H338.161V82.3635H333.16V31.4989H338.161ZM342.896 39.7114C339.739 42.8684 338.161 46.6876 338.161 51.1692C338.161 55.6507 339.739 59.47 342.896 62.627C346.075 65.7619 349.883 67.3293 354.321 67.3293C358.802 67.3293 362.588 65.7619 365.679 62.627C368.77 59.47 370.315 55.6507 370.315 51.1692C370.315 46.6435 368.77 42.8132 365.679 39.6783C362.588 36.5434 358.802 34.9759 354.321 34.9759C349.883 34.9759 346.075 36.5544 342.896 39.7114Z" fill="#4A464E"/>
<path d="M325.012 70.7733H320.012V43.5196C320.012 41.025 319.129 38.9829 317.362 37.3933C315.596 35.7817 313.466 34.9759 310.971 34.9759C308.499 34.9759 306.368 35.8811 304.58 37.6914C302.792 39.4796 301.898 41.6431 301.898 44.1819V70.7733H296.864V44.1819C296.864 41.6431 295.981 39.4796 294.215 37.6914C292.471 35.8811 290.352 34.9759 287.857 34.9759C285.406 34.9759 283.276 35.848 281.466 37.592C279.656 39.314 278.75 41.4003 278.75 43.8508V70.7733H273.75V31.4989H278.75V36.3999H278.916C281.168 32.3819 284.369 30.3619 288.519 30.3398C293.487 30.3398 297.383 32.4923 300.209 36.7973C301.511 34.8545 303.167 33.2981 305.176 32.1281C307.185 30.9359 309.349 30.3398 311.667 30.3398C315.508 30.3398 318.687 31.5872 321.204 34.0818C323.743 36.5765 325.012 39.7224 325.012 43.5196V70.7733Z" fill="#4A464E"/>
<path d="M245.801 67.3293C250.283 67.3293 254.069 65.7508 257.16 62.5939C260.25 59.4148 261.796 55.5845 261.796 51.103C261.796 46.6214 260.25 42.8132 257.16 39.6783C254.069 36.5434 250.283 34.9759 245.801 34.9759C241.408 34.9759 237.644 36.5544 234.509 39.7114C231.374 42.8684 229.807 46.6655 229.807 51.103C229.807 55.5845 231.363 59.4148 234.476 62.5939C237.589 65.7508 241.364 67.3293 245.801 67.3293ZM260.736 65.8391C256.608 69.9012 251.629 71.9323 245.801 71.9323C239.973 71.9323 234.984 69.9012 230.833 65.8391C226.705 61.7549 224.641 56.8429 224.641 51.103C224.641 45.363 226.716 40.473 230.866 36.433C235.039 32.3709 240.017 30.3398 245.801 30.3398C251.629 30.3398 256.608 32.3709 260.736 36.433C264.886 40.473 266.962 45.363 266.962 51.103C266.962 56.8429 264.886 61.7549 260.736 65.8391Z" fill="#4A464E"/>
<path d="M194.931 67.3297C199.589 67.3297 203.773 65.9941 207.481 63.3228C211.212 60.6515 213.851 57.1634 215.396 52.8585H220.429C218.796 58.4218 215.617 62.9916 210.892 66.5681C206.168 70.1445 200.847 71.9327 194.931 71.9327C187.557 71.9327 181.254 69.3387 176.022 64.1507C170.812 58.9406 168.207 52.6708 168.207 45.3413C168.207 38.0119 170.812 31.7532 176.022 26.5651C181.254 21.355 187.557 18.75 194.931 18.75C200.847 18.75 206.168 20.5382 210.892 24.1146C215.617 27.6911 218.796 32.2609 220.429 37.8242H215.396C213.851 33.5193 211.212 30.0312 207.481 27.3599C203.773 24.6886 199.589 23.353 194.931 23.353C188.926 23.353 183.826 25.5055 179.632 29.8104C175.437 34.1154 173.34 39.2923 173.34 45.3413C173.34 51.3904 175.437 56.5673 179.632 60.8723C183.826 65.1772 188.926 67.3297 194.931 67.3297Z" fill="#4A464E"/>
<path d="M135.923 47.6594V42.9571H161.752V70.7737H156.719V60.1106L156.586 60.0444C151.111 67.9479 144.224 71.9106 135.923 71.9327C128.505 71.9327 122.169 69.3387 116.915 64.1507C111.682 58.9406 109.066 52.6708 109.066 45.3413C109.066 38.0119 111.682 31.7532 116.915 26.5651C122.169 21.355 128.505 18.75 135.923 18.75C141.53 18.75 146.608 20.3837 151.156 23.651C155.725 26.8963 158.96 31.0798 160.858 36.2016H155.593C153.827 32.3603 151.189 29.2585 147.679 26.8963C144.168 24.5341 140.25 23.353 135.923 23.353C129.874 23.353 124.741 25.5055 120.524 29.8104C116.308 34.1154 114.199 39.2923 114.199 45.3413C114.199 51.3904 116.297 56.5673 120.491 60.8723C124.708 65.1772 129.852 67.3297 135.923 67.3297C141.486 67.3297 146.21 65.4532 150.096 61.7002C153.981 57.9471 156.244 53.2669 156.884 47.6594H135.923Z" fill="#A158F7"/>
<path d="M82.9993 46.2496C82.9993 24.8488 66.0587 7.49994 45.1614 7.49994C24.2641 7.49994 7.32347 24.8488 7.32347 46.2496C7.32347 67.6505 24.2641 84.9993 45.1614 84.9993C66.0587 84.9993 82.9993 67.6505 82.9993 46.2496ZM90.3228 46.2496C90.3228 71.7926 70.1033 92.4992 45.1614 92.4992C20.2194 92.4992 0 71.7926 0 46.2496C0 20.7067 20.2194 0 45.1614 0C70.1033 0 90.3228 20.7067 90.3228 46.2496Z" fill="url(#paint0_linear_787_2)"/>
<path d="M45.1608 23.9404C46.5214 23.9404 47.7693 24.6818 48.3963 25.862L58.3542 44.607C58.9009 45.6362 58.9009 46.862 58.3542 47.8912L48.3963 66.6361C47.7693 67.8163 46.5214 68.5577 45.1608 68.5577C43.8004 68.5576 42.5535 67.8163 41.9266 66.6361L31.9686 47.8912C31.4219 46.862 31.4219 45.6362 31.9686 44.607L41.9266 25.862L42.0511 25.6451C42.7098 24.5917 43.8856 23.9405 45.1608 23.9404ZM39.3092 46.2491L45.1608 57.2636L51.0112 46.2491L45.1608 35.2333L39.3092 46.2491Z" fill="url(#paint1_linear_787_2)"/>
<defs>
<linearGradient id="paint0_linear_787_2" x1="14.0366" y1="-4.92338e-07" x2="89.1439" y2="78.8405" gradientUnits="userSpaceOnUse">
<stop stop-color="#497DF7"/>
<stop offset="1" stop-color="#A158F7"/>
</linearGradient>
<linearGradient id="paint1_linear_787_2" x1="17.5864" y1="5.87388" x2="85.7458" y2="80.4582" gradientUnits="userSpaceOnUse">
<stop stop-color="#0049F3"/>
<stop offset="1" stop-color="#F7E0FF"/>
</linearGradient>
</defs>
</svg>
